<?xml version="1.0" standalone="no"?><!DOCTYPE svg PUBLIC "-//W3C//DTD SVG 1.1//EN" "http://www.w3.org/Graphics/SVG/1.1/DTD/svg11.dtd"><svg t="1639578605066" class="icon" viewBox="0 0 1024 1024" version="1.1" xmlns="http://www.w3.org/2000/svg" p-id="7467" xmlns:xlink="http://www.w3.org/1999/xlink" width="200" height="200"><defs><style type="text/css"></style></defs><path d="M890.182 64C928.742 64 960 95.259 960 133.818v628.364c0 38.56-31.259 69.818-69.818 69.818H832v58.182c0 38.56-31.259 69.818-69.818 69.818H133.818C95.258 960 64 928.741 64 890.182V261.818C64 223.258 95.259 192 133.818 192H192v-58.182C192 95.258 223.259 64 261.818 64h628.364zM768 256H128v640h640V256z m128-128H256v64h506.182c38.56 0 69.818 31.259 69.818 69.818V768h64V128z" fill="#FF3030" p-id="7468"></path></svg>