<?xml version="1.0" encoding="UTF-8"?>
<svg width="24px" height="24px" viewBox="0 0 24 24" version="1.1" xmlns="http://www.w3.org/2000/svg" xmlns:xlink="http://www.w3.org/1999/xlink">
    <title>user</title>
    <g id="V1.2" stroke="none" stroke-width="1" fill="none" fill-rule="evenodd">
        <g id="top" transform="translate(-206.000000, -126.000000)" stroke="#ffcc66">
            <g id="user" transform="translate(206.000000, 126.000000)">
                <path d="M16.8841237,15.3504523 C16.617717,14.7538693 16.2343168,14.2185427 15.7480188,13.7591206 C15.2617207,13.2996985 14.6950778,12.9388191 14.0635951,12.685804 C14.0579569,12.6831407 14.0523187,12.681809 14.0466804,12.6791457 C14.924836,12.0798995 15.4957076,11.103794 15.4957076,10.0025126 C15.4957076,8.1781407 13.9310965,6.7 12,6.7 C10.0689035,6.7 8.50429239,8.1781407 8.50429239,10.0025126 C8.50429239,11.103794 9.07516399,12.0798995 9.95331957,12.6804774 C9.94768134,12.6831407 9.9420431,12.6844724 9.93640486,12.6871357 C9.3049222,12.9388191 8.73827927,13.2996985 8.25198123,13.7604523 C7.7656832,14.2198744 7.38369257,14.755201 7.11587626,15.3517839 C6.85369819,15.9350503 6.71415179,16.5542714 6.70002753,17.190804 C6.69864664,17.2507286 6.74939078,17.3 6.81282096,17.3 L7.65855667,17.3 C7.72057729,17.3 7.76991188,17.253392 7.77132144,17.1961307 C7.79951263,16.1680905 8.23647608,15.2053015 9.0089147,14.4755528 C9.80813494,13.7205025 10.8695333,13.3050251 12,13.3050251 C13.1304667,13.3050251 14.1918651,13.7205025 14.9910853,14.4755528 C15.7635239,15.2053015 16.2004874,16.1680905 16.2286786,17.1961307 C16.2300881,17.2547236 16.2794227,17.3 16.3414433,17.3 L17.187179,17.3 C17.2506092,17.3 17.3013534,17.2507286 17.2999725,17.190804 C17.2858482,16.5542714 17.1463018,15.9350503 16.8841237,15.3504523 Z M12,12.2929648 C11.3530122,12.2929648 10.7440825,12.054598 10.2859756,11.621809 C9.82786878,11.1890201 9.57555762,10.6137437 9.57555762,10.0025126 C9.57555762,9.39128141 9.82786878,8.81600503 10.2859756,8.38321608 C10.7440825,7.95042714 11.3530122,7.7120603 12,7.7120603 C12.6469878,7.7120603 13.2559175,7.95042714 13.7140244,8.38321608 C14.1721312,8.81600503 14.4244424,9.39128141 14.4244424,10.0025126 C14.4244424,10.6137437 14.1721312,11.1890201 13.7140244,11.621809 C13.2559175,12.054598 12.6469878,12.2929648 12,12.2929648 Z" id="Shape" stroke-width="0.5" fill="#FFFFFF" fill-rule="nonzero"></path>
                <circle id="椭圆形" stroke-opacity="0.696787587" stroke-width="2" cx="12" cy="12" r="11"></circle>
            </g>
        </g>
    </g>
</svg>